<svg width="69" height="18" viewBox="0 0 69 18" fill="none" xmlns="http://www.w3.org/2000/svg">
<g clip-path="url(#clip0)">
<path d="M12.0229 4.87336V5.87336H11.9729C11.5852 5.42853 11.1075 5.07105 10.5714 4.82454C10.0353 4.57803 9.45293 4.44811 8.86288 4.44336C5.94288 4.44336 3.81288 6.87336 3.81288 10.2434C3.79288 10.4662 3.79288 10.6905 3.81288 10.9134H6.59288C6.56293 10.691 6.56293 10.4657 6.59288 10.2434C6.54288 8.15336 7.70288 6.72336 9.28288 6.72336C10.8629 6.72336 12.0229 8.19336 12.0229 10.2434C12.0229 12.2934 10.8629 13.7634 9.28288 13.7634H9.05288V16.0934C9.61567 16.0678 10.1667 15.9236 10.6699 15.6703C11.1731 15.417 11.6171 15.0602 11.9729 14.6234H12.0229V15.7134H14.7029V4.77336L12.0229 4.87336Z" fill="#2A1812"/>
<path d="M24.2229 0.873535V5.87354H24.1729C23.7893 5.42091 23.3133 5.05556 22.7769 4.80202C22.2405 4.54848 21.6561 4.41261 21.0629 4.40354C18.1429 4.40354 16.0629 6.82353 16.0629 10.2035C16.0629 13.5835 18.1529 16.0535 21.0629 16.0535C21.658 16.0553 22.246 15.9242 22.784 15.6699C23.322 15.4156 23.7965 15.0445 24.1729 14.5835H24.2229V15.6735H26.9129V0.873535H24.2229ZM21.4829 13.8135C19.8629 13.8135 18.7429 12.3335 18.7429 10.2935C18.7429 8.25354 19.9029 6.77354 21.4829 6.77354C23.0629 6.77354 24.1729 8.24354 24.1729 10.2935C24.1729 12.3435 23.0629 13.8135 21.4829 13.8135Z" fill="#2A1812"/>
<path d="M28.2529 10.2935C28.2529 6.82351 30.4329 4.49351 33.7329 4.49351C34.9527 4.43111 36.1497 4.84098 37.0752 5.63801C38.0007 6.43503 38.5836 7.55795 38.7029 8.77351H36.0529C35.949 8.23012 35.6559 7.74112 35.2257 7.39329C34.7955 7.04546 34.256 6.86131 33.7029 6.87351C32.0129 6.87351 30.9029 8.24351 30.9029 10.3435C30.9029 12.4435 32.0129 13.8135 33.6829 13.8135C34.2451 13.829 34.7941 13.6414 35.2294 13.2851C35.6646 12.9288 35.9569 12.4277 36.0529 11.8735H38.7029C38.5764 13.0925 37.9876 14.2166 37.0575 15.0146C36.1275 15.8126 34.9269 16.2238 33.7029 16.1635C30.4329 16.0935 28.2529 13.7635 28.2529 10.2935Z" fill="#2A1812"/>
<path d="M39.5229 10.2937C39.5229 6.82365 41.7529 4.49365 45.0429 4.49365C48.3329 4.49365 50.5629 6.87365 50.5629 10.2937C50.6147 11.0483 50.5083 11.8055 50.2504 12.5166C49.9925 13.2277 49.5889 13.8771 49.0655 14.4232C48.542 14.9692 47.9102 15.3999 47.2106 15.6875C46.511 15.9752 45.7591 16.1135 45.0029 16.0937C41.7029 16.0937 39.5229 13.7637 39.5229 10.2937ZM47.8729 10.2937C47.8729 8.29365 46.7629 6.86365 45.0429 6.86365C43.3229 6.86365 42.2129 8.24365 42.2129 10.2937C42.2129 12.3437 43.3329 13.7137 45.0429 13.7137C46.7529 13.7137 47.8329 12.3337 47.8729 10.2937Z" fill="#2A1812"/>
<path d="M51.8629 4.87365H54.5529V6.20365C54.7116 5.7211 55.0142 5.29865 55.42 4.99299C55.8257 4.68733 56.3153 4.51309 56.8229 4.49365C57.1345 4.50382 57.4451 4.53388 57.7529 4.58365V7.10365C57.4686 7.01177 57.1717 6.96455 56.8729 6.96365C55.4329 6.96365 54.5029 8.34365 54.5029 10.4337V15.7637H51.8629V4.87365Z" fill="#2A1812"/>
<path d="M68.1429 10.4337C68.1429 6.72365 66.0629 4.49365 62.9529 4.49365C59.8429 4.49365 57.7029 6.87365 57.7029 10.2937C57.7029 13.7137 59.8829 16.0937 63.1329 16.0937V13.8737C62.4499 13.865 61.793 13.6106 61.2824 13.1569C60.7718 12.7033 60.4418 12.0808 60.3529 11.4037H68.1429V10.4337ZM60.3029 9.43365C60.3228 8.71137 60.6173 8.02384 61.1263 7.51106C61.6354 6.99828 62.3208 6.69882 63.0429 6.67365C64.4829 6.67365 65.4129 7.81365 65.4529 9.43365H60.3029Z" fill="#2A1812"/>
<path d="M66.0629 16.2336C66.308 16.2394 66.5494 16.1725 66.7565 16.0411C66.9636 15.9098 67.1271 15.7201 67.2264 15.4958C67.3256 15.2716 67.3562 15.023 67.3142 14.7814C67.2721 14.5398 67.1594 14.3161 66.9903 14.1386C66.8211 13.961 66.6031 13.8376 66.3639 13.784C66.1246 13.7303 65.8748 13.7488 65.646 13.8371C65.4172 13.9254 65.2198 14.0795 65.0786 14.28C64.9374 14.4805 64.8589 14.7184 64.8529 14.9636C64.8516 15.1238 64.8818 15.2827 64.9419 15.4312C65.002 15.5797 65.0908 15.7149 65.2031 15.8292C65.3155 15.9434 65.4492 16.0343 65.5968 16.0969C65.7443 16.1594 65.9027 16.1922 66.0629 16.1936V16.2336Z" fill="#2A1812"/>
<path d="M0.702881 11.4336H1.21288V13.3836C1.47161 13.1627 1.8028 13.0452 2.14288 13.0536C2.3215 13.0483 2.49941 13.0782 2.66646 13.1417C2.83351 13.2051 2.98641 13.3009 3.11643 13.4235C3.24645 13.5461 3.35103 13.6931 3.4242 13.8561C3.49738 14.0191 3.5377 14.195 3.54288 14.3736C3.54786 14.4402 3.54786 14.507 3.54288 14.5736C3.57036 14.9753 3.43732 15.3715 3.17297 15.6752C2.90861 15.979 2.53455 16.1654 2.13288 16.1936H1.91288C1.48734 16.2041 1.06762 16.0931 0.702881 15.8736L0.702881 11.4336ZM1.21288 13.8736V15.3936C1.42181 15.5258 1.66575 15.5921 1.91288 15.5836C2.17659 15.6001 2.43609 15.5115 2.63471 15.3372C2.83332 15.163 2.9549 14.9172 2.97288 14.6536C2.97791 14.6004 2.97791 14.5468 2.97288 14.4936C2.98518 14.3592 2.96776 14.2237 2.92185 14.0968C2.87594 13.9699 2.80268 13.8547 2.70725 13.7592C2.61182 13.6638 2.49656 13.5905 2.36965 13.5446C2.24274 13.4987 2.10728 13.4813 1.97288 13.4936C1.68343 13.5292 1.41507 13.6634 1.21288 13.8736Z" fill="#2A1812"/>
<path d="M6.03288 16.0938C5.62288 17.1838 5.34288 17.4237 4.92288 17.4237C4.72133 17.4183 4.52612 17.3521 4.36288 17.2338L4.55288 16.8038C4.64856 16.8654 4.75914 16.8999 4.87288 16.9038C5.11288 16.9038 5.29288 16.7137 5.48288 16.2337V16.0938L4.09288 13.0938H4.70288L5.53288 15.0037C5.59967 15.1566 5.65645 15.3136 5.70288 15.4738C5.73317 15.3127 5.78009 15.1552 5.84288 15.0037L6.53288 13.0938H7.13288L6.03288 16.0938Z" fill="#2A1812"/>
</g>
<defs>
<clipPath id="clip0">
<rect width="67.44" height="16.55" fill="white" transform="translate(0.702881 0.873535)"/>
</clipPath>
</defs>
</svg>
